<?xml version="1.0" standalone="no"?><!DOCTYPE svg PUBLIC "-//W3C//DTD SVG 1.1//EN" "http://www.w3.org/Graphics/SVG/1.1/DTD/svg11.dtd"><svg t="1514985872247" class="icon" style="" viewBox="0 0 1024 1024" version="1.1" xmlns="http://www.w3.org/2000/svg" p-id="1392" xmlns:xlink="http://www.w3.org/1999/xlink" width="200" height="200"><defs><style type="text/css"></style></defs><path d="M223.863203 1019.645288c-11.612566 0-23.225132-7.257854-27.579844-18.87042l-182.897917-502.243485c-2.903142-7.257854-2.177356-15.241493 0.725785-22.499347 3.628927-7.257854 9.43521-12.338352 16.693064-15.241493l594.418229-216.284044c15.241493-5.806283 31.934557 2.177356 37.015054 17.418849l182.897917 502.243485c5.806283 15.241493-2.177356 31.934557-17.41885 37.015055l-89.997387 32.660342-23.950918 100.884168c0 1.451571-1.451571 5.806283-5.806283 7.257854-4.354712 1.451571-7.983639-1.451571-9.43521-2.177356l-83.465319-61.691758-382.488896 139.350794c-2.177356 1.451571-5.806283 2.177356-8.709425 2.177356z m411.520312-762.074652c-1.451571 0-3.628927 0-5.080498 0.725785l-594.418228 216.284044c-3.628927 1.451571-6.532068 3.628927-7.983639 7.257854-1.451571 3.628927-1.451571 7.257854-0.725786 10.886781l182.897917 502.243485c2.903142 7.257854 10.886781 11.612566 18.87042 8.709424l389.74675-141.528149 83.465319 61.691757 23.950918-100.884168 97.255241-35.563484c7.257854-2.903142 11.612566-10.886781 8.709425-18.87042l-182.897917-502.243485c-2.177356-5.080498-7.983639-8.709425-13.789922-8.709424z" fill="#CCCCCC" p-id="1393"></path><path d="M908.358655 699.501355l-231.888429 84.387067-105.485648-289.856908 231.88843-84.394325z" fill="#F4F4F4" p-id="1394"></path><path d="M928.470168 1011.661648h-583.531447c-9.43521 0-16.693064-3.628927-16.693064-7.983639 0-4.354712 7.257854-7.983639 16.693064-7.983639h583.531447c9.43521 0 16.693064 3.628927 16.693064 7.983639-0.725785 4.354712-7.983639 7.983639-16.693064 7.983639m-259.831167-900.699659c-9.43521 0-17.418849-6.532068-19.596205-15.967279l-15.967278-69.675397c-2.177356-10.886781 4.354712-21.773561 15.241493-24.676703 10.886781-2.903142 21.773561 4.354712 24.676703 15.241493l15.967278 69.675397c2.177356 10.886781-4.354712 21.773561-15.241493 24.676703-2.177356 0.725785-3.628927 0.725785-5.080498 0.725786m225.719254 179.994774c-1.451571 0-2.903142 0-4.354712-0.725785l-69.675397-13.789922c-10.886781-2.177356-18.144635-13.064137-15.967278-23.950918 2.177356-10.886781 13.064137-18.144635 23.950917-15.967278l69.675397 13.789922c10.886781 2.177356 18.144635 13.064137 15.967279 23.950918-1.451571 9.43521-10.160995 16.693064-19.596206 16.693063m-111.045163-140.802364c-5.806283 0-11.612566-2.177356-15.967279-7.257854-7.257854-8.709425-5.806283-21.773561 2.903142-29.031415l59.514401-49.353406c8.709425-7.257854 21.047776-5.806283 28.30563 2.903142 7.257854 8.709425 5.806283 21.773561-2.903141 29.031415l-59.514402 49.353406c-2.903142 2.903142-7.257854 4.354712-12.338351 4.354712M310.101022 694.493436l-42.095552 15.967279c-1.451571 0.725785-2.903142 1.451571-3.628927 2.903141-0.725785 1.451571-0.725785 2.903142 0 4.354712 0.725785 2.177356 2.903142 3.628927 5.806283 3.628927 0.725785 0 1.451571 0 2.177356-0.725785l42.095553-15.967278c1.451571-0.725785 2.903142-1.451571 3.628926-2.903142s0.725785-2.903142 0-4.354712c-0.725785-1.451571-1.451571-2.903142-2.903141-3.628927-1.451571 0.725785-3.628927 0-5.080498 0.725785m87.820032-32.660342l-57.337046 21.047776c-2.177356 0.725785-3.628927 2.177356-4.354712 5.080498-0.725785 2.177356 0.725785 4.354712 2.177356 5.806283 1.451571 1.451571 4.354712 1.451571 5.806283 0.725785l57.337045-21.047776c1.451571-0.725785 2.903142-1.451571 3.628927-2.903141 0.725785-1.451571 0.725785-2.903142 0-4.354713-0.725785-1.451571-1.451571-2.903142-2.903141-3.628927-1.451571-1.451571-2.903142-1.451571-4.354712-0.725785m-179.994775-58.062831c-2.903142 0-5.080498-1.451571-5.806283-3.628927-1.451571-2.903142 0.725785-6.532068 3.628926-7.983639l35.563484-13.789922c2.903142-1.451571 6.532068 0.725785 7.983639 3.628927 1.451571 2.903142-0.725785 6.532068-3.628926 7.983639l-35.563484 13.789922h-2.177356m66.046469-24.676703c-2.903142 0-5.080498-1.451571-5.806283-4.354712-1.451571-2.903142 0.725785-6.532068 3.628927-7.983639l57.337046-21.047776c2.903142-1.451571 6.532068 0.725785 7.983639 3.628927 0.725785 1.451571 0.725785 2.903142 0 4.354712-0.725785 1.451571-2.177356 2.903142-3.628927 2.903142l-57.337045 21.047776c-0.725785 1.451571-1.451571 1.451571-2.177357 1.45157m87.094246-32.660342c-2.177356 0-5.080498-1.451571-5.806283-3.628927-0.725785-1.451571-0.725785-2.903142 0-4.354712 0.725785-1.451571 2.177356-2.903142 3.628927-2.903142l57.337045-21.773561c1.451571-0.725785 2.903142-0.725785 4.354713 0 1.451571 0.725785 2.903142 2.177356 2.903141 3.628927 0.725785 1.451571 0.725785 2.903142 0 4.354712-0.725785 1.451571-2.177356 2.903142-3.628927 2.903142l-57.337045 21.047776c0 0.725785-0.725785 0.725785-1.451571 0.725785m87.820032-32.660342c-2.903142 0-5.806283-2.177356-5.806283-5.080498-0.725785-2.903142 1.451571-5.806283 3.628927-6.532068l57.337045-21.047776c1.451571-0.725785 2.903142-0.725785 4.354712 0 1.451571 0.725785 2.903142 2.177356 2.903142 3.628927 0.725785 1.451571 0.725785 2.903142 0 4.354712-0.725785 1.451571-2.177356 2.903142-3.628927 2.903141l-57.337046 21.047777c0 0.725785-0.725785 0.725785-1.45157 0.725785" fill="" p-id="1395"></path><path d="M616.447774 599.016369a127.012442 126.286657 90 1 0 252.573314 0 127.012442 126.286657 90 1 0-252.573314 0Z" fill="#D8D8D8" p-id="1396"></path><path d="M742.734431 733.286665c-73.304324 0-133.54451-60.240187-133.54451-134.270296s59.514401-134.270296 133.54451-134.270296 133.54451 60.240187 133.54451 134.270296-60.240187 134.270296-133.54451 134.270296z m0-254.750669c-65.320684 0-119.028803 53.708118-119.028803 119.754588s52.982333 119.754588 119.028803 119.754588 119.028803-53.708118 119.028803-119.754588-53.708118-119.754588-119.028803-119.754588z" fill="#2C2C2C" p-id="1397"></path><path d="M994.581959 756.511797c-1.451571 0-3.628927-0.725785-5.080498-1.451571l-132.818725-73.304323c-5.080498-2.903142-7.257854-9.43521-4.354712-14.515708s9.43521-7.257854 14.515707-4.354712l132.818725 73.304323c5.080498 2.903142 7.257854 9.43521 4.354713 14.515708-1.451571 4.354712-5.080498 5.806283-9.43521 5.806283z" fill="#171717" p-id="1398"></path></svg>